<?xml version="1.0" encoding="utf-8"?>
<svg xmlns="http://www.w3.org/2000/svg" xmlns:xlink="http://www.w3.org/1999/xlink" style="margin: auto; background: none; display: block; shape-rendering: auto;" width="223px" height="223px" viewBox="0 0 100 100" preserveAspectRatio="xMidYMid">
<g transform="translate(50 50)">
<g>
<animateTransform attributeName="transform" type="rotate" values="0;40" keyTimes="0;1" dur="0.2s" repeatCount="indefinite"></animateTransform><path d="M25.937424698685874 -7.5 L40.937424698685874 -7.5 L40.937424698685874 7.5 L25.937424698685874 7.5 A27 27 0 0 1 24.690127131894293 10.926921900100563 L24.690127131894293 10.926921900100563 L36.18079377867896 20.56873604539865 L26.53897963338087 32.059402692183326 L15.0483129865962 22.417588546885238 A27 27 0 0 1 11.890044679891593 24.241015603934205 L11.890044679891593 24.241015603934205 L14.49476734489555 39.013131899117326 L-0.27734895028756945 41.61785456412128 L-2.8820716152915256 26.84573826893816 A27 27 0 0 1 -6.4735218209596415 26.212468697807907 L-6.4735218209596415 26.212468697807907 L-13.97352182095964 39.20284975457449 L-26.96390287772622 31.702849754574487 L-19.463902877726223 18.712468697807907 A27 27 0 0 1 -21.80805551660276 15.918816368837602 L-21.80805551660276 15.918816368837602 L-35.903444828391386 21.049118518722636 L-41.03374697827642 6.9537292069340015 L-26.938357666487793 1.823427057048969 A27 27 0 0 1 -26.938357666487796 -1.8234270570489624 L-26.938357666487796 -1.8234270570489624 L-41.033746978276426 -6.953729206933993 L-35.903444828391386 -21.04911851872263 L-21.808055516602764 -15.918816368837598 A27 27 0 0 1 -19.46390287772624 -18.712468697807896 L-19.46390287772624 -18.712468697807896 L-26.963902877726248 -31.702849754574473 L-13.973521820959673 -39.20284975457447 L-6.473521820959665 -26.2124686978079 A27 27 0 0 1 -2.8820716152915318 -26.84573826893816 L-2.8820716152915318 -26.84573826893816 L-0.27734895028758233 -41.61785456412128 L14.494767344895527 -39.01313189911734 L11.890044679891577 -24.241015603934216 A27 27 0 0 1 15.0483129865962 -22.417588546885238 L15.0483129865962 -22.417588546885238 L26.53897963338087 -32.059402692183326 L36.180793778678954 -20.568736045398673 L24.690127131894286 -10.926921900100579 A27 27 0 0 1 25.937424698685874 -7.5 M0 -15A15 15 0 1 0 0 15 A15 15 0 1 0 0 -15" fill="#97d9e7"></path></g></g>
<!-- [ldio] generated by https://loading.io/ --></svg>